<svg width="11" height="12" viewBox="0 0 11 12" fill="none" xmlns="http://www.w3.org/2000/svg">
<path d="M6.50778 6.009L10.791 1.72569C11.0697 1.44708 11.0697 0.996604 10.791 0.717992C10.5124 0.43938 10.0619 0.43938 9.78327 0.717992L5.49995 5.0013L1.21676 0.717992C0.938016 0.43938 0.487669 0.43938 0.209057 0.717992C-0.0696857 0.996604 -0.0696857 1.44708 0.209057 1.72569L4.49225 6.009L0.209057 10.2923C-0.0696857 10.5709 -0.0696857 11.0214 0.209057 11.3C0.347906 11.439 0.530472 11.5088 0.712908 11.5088C0.895343 11.5088 1.07778 11.439 1.21676 11.3L5.49995 7.0167L9.78327 11.3C9.92225 11.439 10.1047 11.5088 10.2871 11.5088C10.4696 11.5088 10.652 11.439 10.791 11.3C11.0697 11.0214 11.0697 10.5709 10.791 10.2923L6.50778 6.009Z" fill="#CD0541"/>
</svg>
