<svg width="439" height="134" viewBox="0 0 439 134" fill="none" xmlns="http://www.w3.org/2000/svg">
<path d="M105.114 2.57703H111.101V20.6155H114.095L119.916 12.0535H126.569L118.918 22.8599V22.943L127.484 36.2433H120.582L114.178 25.6862H111.018V36.2433H105.031V2.57703H105.114Z" fill="white"/>
<path d="M141.455 11.4716C148.44 11.4716 152.182 16.5423 152.182 22.943C152.182 23.6912 152.016 25.2706 152.016 25.2706H135.301C135.717 29.51 138.96 31.6713 142.536 31.6713C146.444 31.6713 149.521 29.0113 149.521 29.0113L151.85 33.3338C151.85 33.3338 148.191 36.8252 142.12 36.8252C134.137 36.8252 129.147 31.0063 129.147 24.1899C129.147 16.7085 134.22 11.4716 141.455 11.4716ZM146.112 21.1142C146.028 17.8723 143.949 16.1266 141.288 16.1266C138.211 16.1266 136.049 18.0386 135.467 21.1142H146.112Z" fill="white"/>
<path d="M157.172 12.0533H162.993V14.8796C162.993 15.794 162.91 16.5422 162.91 16.5422H162.993C164.074 14.464 166.652 11.5546 171.559 11.5546C176.881 11.5546 179.958 14.3809 179.958 20.7816V36.3263H173.97V21.8623C173.97 18.9528 173.222 16.9578 170.145 16.9578C166.902 16.9578 164.573 19.036 163.658 21.8623C163.326 22.8598 163.243 23.9404 163.243 25.1042V36.16H157.172V12.0533Z" fill="white"/>
<path d="M186.194 12.0533H192.016V14.8796C192.016 15.794 191.932 16.5422 191.932 16.5422H192.016C193.097 14.464 195.675 11.5546 200.581 11.5546C205.903 11.5546 208.98 14.3809 208.98 20.7816V36.3263H202.993V21.8623C202.993 18.9528 202.244 16.9578 199.167 16.9578C195.924 16.9578 193.596 19.036 192.681 21.8623C192.348 22.8598 192.265 23.9404 192.265 25.1042V36.16H186.278V12.0533H186.194Z" fill="white"/>
<path d="M215.217 2.57703H221.205V7.89713H215.217V2.57703ZM215.217 12.0535H221.205V36.2433H215.217V12.0535Z" fill="white"/>
<path d="M228.606 29.0113C228.606 29.0113 231.267 31.6713 235.176 31.6713C236.922 31.6713 238.336 30.9232 238.336 29.51C238.336 25.9356 226.61 26.3512 226.61 18.6204C226.61 14.1316 230.602 11.4716 235.841 11.4716C241.329 11.4716 243.907 14.2147 243.907 14.2147L241.662 18.7036C241.662 18.7036 239.417 16.6254 235.758 16.6254C234.178 16.6254 232.681 17.2904 232.681 18.7867C232.681 22.1949 244.406 21.7793 244.406 29.51C244.406 33.5001 240.914 36.742 235.176 36.742C229.188 36.742 225.779 33.1676 225.779 33.1676L228.606 29.0113Z" fill="white"/>
<path d="M249.313 12.0534H254.801V13.7991C254.801 14.7135 254.718 15.4616 254.718 15.4616H254.801C254.801 15.4616 256.88 11.4716 262.535 11.4716C269.105 11.4716 273.263 16.6254 273.263 24.1068C273.263 31.7544 268.606 36.742 262.203 36.742C257.379 36.742 255.3 33.417 255.3 33.417C255.3 33.417 255.383 34.2482 255.383 35.4951V45.6366H249.396V12.0534H249.313ZM261.205 31.6713C264.531 31.6713 267.275 29.0113 267.275 24.1899C267.275 19.618 264.78 16.6254 261.288 16.6254C258.128 16.6254 255.217 18.8698 255.217 24.273C255.134 28.0137 257.213 31.6713 261.205 31.6713Z" fill="white"/>
<path d="M278.003 2.57703H283.99V27.7644C283.99 30.4244 284.905 31.0894 286.485 31.0894C286.984 31.0894 287.4 31.0063 287.4 31.0063V36.2433C287.4 36.2433 286.485 36.4095 285.487 36.4095C282.161 36.4095 278.003 35.5783 278.003 28.6788V2.57703Z" fill="white"/>
<path d="M304.032 21.0311H304.864V20.6986C304.864 17.5398 302.868 16.4592 300.207 16.4592C296.714 16.4592 293.554 18.7867 293.554 18.7867L291.309 14.4641C291.309 14.4641 295.051 11.4716 300.789 11.4716C307.109 11.4716 310.851 14.9629 310.851 21.1142V36.2433H305.279V34.2482C305.279 33.3338 305.363 32.5026 305.363 32.5026H305.279C305.363 32.5026 303.45 36.742 297.961 36.742C293.637 36.742 289.729 34.082 289.729 29.1775C289.729 21.5299 300.123 21.0311 304.032 21.0311ZM299.458 32.0869C302.618 32.0869 304.947 28.6788 304.947 25.7693V25.1874H303.866C300.789 25.1874 295.799 25.6031 295.799 29.0113C295.799 30.5907 296.963 32.0869 299.458 32.0869Z" fill="white"/>
<path d="M318.003 17.2073H314.843V12.386H318.086V5.40332H323.99V12.386H329.479V17.2073H323.99V26.6006C323.99 30.5907 327.15 31.1726 328.813 31.1726C329.479 31.1726 329.894 31.0894 329.894 31.0894V36.3264C329.894 36.3264 329.146 36.4927 328.065 36.4927C324.739 36.4927 318.003 35.4951 318.003 27.4319V17.2073Z" fill="white"/>
<path d="M336.048 17.2072H333.055V12.3858H336.048V11.3052C336.048 3.40816 342.535 2.32751 345.944 2.32751C347.192 2.32751 348.023 2.49377 348.023 2.49377V7.64761C348.023 7.64761 347.524 7.56449 346.776 7.56449C345.03 7.56449 342.119 7.98012 342.119 11.4714V12.3858H347.275V17.2072H342.119V36.2431H336.132V17.2072H336.048Z" fill="white"/>
<path d="M362.743 11.4716C370.144 11.4716 376.048 16.7085 376.048 24.1068C376.048 31.5882 370.144 36.742 362.743 36.742C355.341 36.742 349.437 31.5051 349.437 24.1068C349.437 16.7085 355.341 11.4716 362.743 11.4716ZM362.743 31.6713C366.651 31.6713 369.894 28.6788 369.894 24.1068C369.894 19.618 366.651 16.5423 362.743 16.5423C358.834 16.5423 355.508 19.618 355.508 24.1068C355.591 28.5956 358.834 31.6713 362.743 31.6713Z" fill="white"/>
<path d="M380.871 12.0533H386.693V16.2097C386.693 17.1241 386.609 17.9553 386.609 17.9553H386.693C387.774 14.464 390.684 11.7208 394.343 11.7208C394.925 11.7208 395.424 11.804 395.424 11.804V17.7059C395.424 17.7059 394.842 17.6228 394.011 17.6228C391.433 17.6228 388.522 19.1191 387.441 22.6935C387.025 23.8573 386.942 25.1873 386.942 26.6005V36.16H380.871V12.0533Z" fill="white"/>
<path d="M399.499 12.0533H405.32V14.8796C405.32 15.794 405.237 16.5422 405.237 16.5422H405.32C406.485 14.1315 409.395 11.5546 413.221 11.5546C416.88 11.5546 419.291 13.3002 420.289 16.5422H420.372C421.703 13.9652 424.863 11.5546 428.605 11.5546C433.595 11.5546 436.505 14.3809 436.505 20.7816V36.3263H430.518V21.7791C430.518 19.036 430.019 16.9578 427.191 16.9578C424.114 16.9578 422.035 19.4516 421.37 22.4441C421.121 23.3585 421.121 24.4392 421.121 25.603V36.2432H414.967V21.7791C414.967 19.2022 414.551 16.9578 411.724 16.9578C408.564 16.9578 406.568 19.4516 405.819 22.5273C405.57 23.4417 405.57 24.5223 405.57 25.603V36.2432H399.582V12.0533H399.499Z" fill="white"/>
<path d="M427.69 103.991C427.94 101.248 435.175 50.7903 435.175 50.7903H412.306C412.306 50.7903 405.32 101.165 404.239 107.15C403.657 110.558 402.244 112.47 398.751 112.47H383.948V50.7903H383.782H361.163H360.996V107.067C360.996 110.558 359.167 112.387 355.591 112.387H337.462V50.7903H314.593V126.685C314.593 132.088 319.916 132.088 319.916 132.088H398.751C417.628 132.005 425.611 124.856 427.69 103.991Z" fill="#373D42"/>
<path d="M267.857 50.7903H235.924C210.976 50.7903 205.571 73.2345 205.571 90.7742C205.571 108.064 210.893 132.005 235.924 132.005H267.857C292.805 132.005 298.211 108.064 298.211 90.7742C298.211 73.1513 292.888 50.7903 267.857 50.7903ZM265.862 112.47H237.92C228.689 112.47 227.774 100.167 227.774 91.1067C227.774 81.7965 228.856 70.4081 237.92 70.4081H265.862C274.926 70.4081 276.007 81.7965 276.007 91.1067C276.007 100.167 275.092 112.47 265.862 112.47Z" fill="#373D42"/>
<path d="M190.519 84.4565V76.8089C190.519 59.4354 181.87 50.7903 164.49 50.7903H127.151C108.274 50.7903 98.9602 60.0173 98.9602 78.5546V132.088H121.746V75.3957C121.746 71.9876 123.659 70.2419 127.235 70.2419H162.494C167.9 70.2419 170.727 73.1513 170.727 78.8039V82.4615C170.727 88.696 167.9 91.7717 162.494 91.7717H134.22L159.417 132.088H186.278C184.116 128.846 178.295 119.536 172.723 110.641C185.03 107.399 190.519 97.6737 190.519 84.4565Z" fill="#373D42"/>
<path d="M74.428 70.242L82.9103 50.6241H29.9376C10.1456 50.6241 2.32861 68.4132 2.32861 83.7085V97.0088C2.32861 112.803 10.1456 132.005 29.9376 132.005H84.6567V112.387H32.6819C26.1954 112.387 24.948 105.072 24.948 97.0088V83.7085C24.948 76.3102 26.4449 70.242 32.5987 70.242H74.428Z" fill="#373D42"/>
<path d="M25.7797 36.1601H88.3157L96.798 16.6254H32.4324C14.0542 16.6254 5.98766 32.0038 4.98975 46.4678C9.39721 40.3996 16.2163 36.1601 25.7797 36.1601Z" fill="white"/>
</svg>
