<svg width="145" height="44" viewBox="0 0 145 44" fill="none" xmlns="http://www.w3.org/2000/svg">
<path d="M34.7187 0.846191H36.6963V6.76927H37.6852L39.6079 3.95785H41.8052L39.2783 7.50624V7.53354L42.1074 11.9008H39.8276L37.7126 8.43428H36.6689V11.9008H34.6912V0.846191H34.7187Z" fill="#009FE3"/>
<path d="M46.7219 3.76678C49.0292 3.76678 50.2652 5.4318 50.2652 7.53353C50.2652 7.77919 50.2103 8.2978 50.2103 8.2978H44.6893C44.8267 9.68986 45.8979 10.3995 47.079 10.3995C48.3699 10.3995 49.3862 9.52609 49.3862 9.52609L50.1553 10.9454C50.1553 10.9454 48.9468 12.0918 46.9416 12.0918C44.3048 12.0918 42.6567 10.1812 42.6567 7.94296C42.6567 5.48639 44.3322 3.76678 46.7219 3.76678ZM48.2601 6.93304C48.2326 5.86852 47.5459 5.29532 46.667 5.29532C45.6507 5.29532 44.9365 5.92311 44.7443 6.93304H48.2601Z" fill="#009FE3"/>
<path d="M51.9133 3.95784H53.836V4.88588C53.836 5.18613 53.8085 5.43178 53.8085 5.43178H53.836C54.1931 4.7494 55.0445 3.79407 56.6651 3.79407C58.423 3.79407 59.4393 4.72211 59.4393 6.82384V11.9281H57.4617V7.17868C57.4617 6.22335 57.2145 5.56826 56.1982 5.56826C55.127 5.56826 54.3579 6.25064 54.0557 7.17868C53.9459 7.50623 53.9184 7.86107 53.9184 8.2432V11.8735H51.9133V3.95784Z" fill="#009FE3"/>
<path d="M61.4993 3.95784H63.422V4.88588C63.422 5.18613 63.3945 5.43178 63.3945 5.43178H63.422C63.7791 4.7494 64.6305 3.79407 66.2511 3.79407C68.009 3.79407 69.0253 4.72211 69.0253 6.82384V11.9281H67.0477V7.17868C67.0477 6.22335 66.8005 5.56826 65.7842 5.56826C64.7129 5.56826 63.9439 6.25064 63.6417 7.17868C63.5318 7.50623 63.5044 7.86107 63.5044 8.2432V11.8735H61.5267V3.95784H61.4993Z" fill="#009FE3"/>
<path d="M71.0854 0.846191H73.0631V2.59309H71.0854V0.846191ZM71.0854 3.95785H73.0631V11.9008H71.0854V3.95785Z" fill="#009FE3"/>
<path d="M75.5076 9.52609C75.5076 9.52609 76.3866 10.3995 77.6775 10.3995C78.2543 10.3995 78.7213 10.1539 78.7213 9.68986C78.7213 8.51617 74.8484 8.65264 74.8484 6.11418C74.8484 4.64023 76.1668 3.76678 77.8973 3.76678C79.7101 3.76678 80.5616 4.66753 80.5616 4.66753L79.82 6.14148C79.82 6.14148 79.0784 5.45909 77.8698 5.45909C77.3479 5.45909 76.8535 5.67746 76.8535 6.16877C76.8535 7.28788 80.7264 7.1514 80.7264 9.68986C80.7264 11 79.5728 12.0646 77.6775 12.0646C75.6999 12.0646 74.5737 10.8909 74.5737 10.8909L75.5076 9.52609Z" fill="#009FE3"/>
<path d="M82.347 3.95785H84.1599V4.53105C84.1599 4.8313 84.1324 5.07696 84.1324 5.07696H84.1599C84.1599 5.07696 84.8466 3.76678 86.7144 3.76678C88.8843 3.76678 90.2576 5.45909 90.2576 7.91567C90.2576 10.4268 88.7195 12.0646 86.6045 12.0646C85.0114 12.0646 84.3247 10.9727 84.3247 10.9727C84.3247 10.9727 84.3522 11.2457 84.3522 11.6551V14.9851H82.3745V3.95785H82.347ZM86.2749 10.3995C87.3736 10.3995 88.28 9.52609 88.28 7.94296C88.28 6.44172 87.456 5.45909 86.3023 5.45909C85.2586 5.45909 84.2972 6.19607 84.2972 7.97026C84.2698 9.19855 84.9564 10.3995 86.2749 10.3995Z" fill="#009FE3"/>
<path d="M91.8232 0.846191H93.8009V9.11666C93.8009 9.99011 94.103 10.2085 94.6249 10.2085C94.7897 10.2085 94.9271 10.1812 94.9271 10.1812V11.9008C94.9271 11.9008 94.6249 11.9554 94.2953 11.9554C93.1966 11.9554 91.8232 11.6824 91.8232 9.41691V0.846191Z" fill="#009FE3"/>
<path d="M100.421 6.90574H100.695V6.79656C100.695 5.75934 100.036 5.4045 99.1571 5.4045C98.0034 5.4045 96.9597 6.16877 96.9597 6.16877L96.218 4.74942C96.218 4.74942 97.4541 3.76678 99.3493 3.76678C101.437 3.76678 102.673 4.91319 102.673 6.93304V11.9008H100.833V11.2457C100.833 10.9454 100.86 10.6725 100.86 10.6725H100.833C100.86 10.6725 100.228 12.0646 98.4154 12.0646C96.9871 12.0646 95.6962 11.1911 95.6962 9.58068C95.6962 7.06952 99.1296 6.90574 100.421 6.90574ZM98.9099 10.536C99.9536 10.536 100.723 9.41691 100.723 8.46158V8.27051H100.366C99.3493 8.27051 97.7013 8.40699 97.7013 9.52609C97.7013 10.0447 98.0858 10.536 98.9099 10.536Z" fill="#009FE3"/>
<path d="M105.035 5.65016H103.991V4.06704H105.062V1.77423H107.013V4.06704H108.826V5.65016H107.013V8.73453C107.013 10.0447 108.056 10.2358 108.606 10.2358C108.826 10.2358 108.963 10.2085 108.963 10.2085V11.9281C108.963 11.9281 108.716 11.9827 108.359 11.9827C107.26 11.9827 105.035 11.6551 105.035 9.00748V5.65016Z" fill="#009FE3"/>
<path d="M110.995 5.65014H110.007V4.06701H110.995V3.71217C110.995 1.11912 113.138 0.764282 114.264 0.764282C114.676 0.764282 114.951 0.818873 114.951 0.818873V2.51118C114.951 2.51118 114.786 2.48389 114.539 2.48389C113.962 2.48389 113.001 2.62036 113.001 3.76676V4.06701H114.704V5.65014H113.001V11.9008H111.023V5.65014H110.995Z" fill="#009FE3"/>
<path d="M119.812 3.76678C122.257 3.76678 124.207 5.48639 124.207 7.91567C124.207 10.3722 122.257 12.0646 119.812 12.0646C117.368 12.0646 115.418 10.345 115.418 7.91567C115.418 5.48639 117.368 3.76678 119.812 3.76678ZM119.812 10.3995C121.103 10.3995 122.175 9.41691 122.175 7.91567C122.175 6.44172 121.103 5.4318 119.812 5.4318C118.521 5.4318 117.423 6.44172 117.423 7.91567C117.45 9.38962 118.521 10.3995 119.812 10.3995Z" fill="#009FE3"/>
<path d="M125.8 3.95781H127.723V5.32258C127.723 5.62283 127.696 5.89578 127.696 5.89578H127.723C128.08 4.74938 129.041 3.84863 130.25 3.84863C130.442 3.84863 130.607 3.87593 130.607 3.87593V5.81389C130.607 5.81389 130.415 5.7866 130.14 5.7866C129.289 5.7866 128.327 6.27791 127.97 7.45161C127.833 7.83374 127.805 8.27047 127.805 8.73449V11.8734H125.8V3.95781Z" fill="#009FE3"/>
<path d="M131.953 3.95784H133.876V4.88588C133.876 5.18613 133.848 5.43178 133.848 5.43178H133.876C134.26 4.64022 135.222 3.79407 136.485 3.79407C137.694 3.79407 138.49 4.36727 138.82 5.43178H138.847C139.287 4.58563 140.331 3.79407 141.567 3.79407C143.215 3.79407 144.176 4.72211 144.176 6.82384V11.9281H142.198V7.15139C142.198 6.25064 142.034 5.56826 141.1 5.56826C140.083 5.56826 139.397 6.38712 139.177 7.36975C139.095 7.67 139.095 8.02484 139.095 8.40697V11.9008H137.062V7.15139C137.062 6.30523 136.925 5.56826 135.991 5.56826C134.947 5.56826 134.288 6.38712 134.041 7.39705C133.958 7.69729 133.958 8.05213 133.958 8.40697V11.9008H131.981V3.95784H131.953Z" fill="#009FE3"/>
<path d="M141.264 34.1464C141.347 33.2457 143.736 16.6774 143.736 16.6774H136.183C136.183 16.6774 133.876 33.2184 133.519 35.1836C133.326 36.3027 132.859 36.9305 131.706 36.9305H126.817V16.6774H126.762H119.291H119.236V35.1563C119.236 36.3027 118.631 36.9032 117.45 36.9032H111.462V16.6774H103.909V41.598C103.909 43.3722 105.667 43.3722 105.667 43.3722H131.706C137.941 43.3449 140.578 40.9975 141.264 34.1464Z" fill="#373D42"/>
<path d="M88.4722 16.6774H77.9247C69.6845 16.6774 67.8992 24.0472 67.8992 29.8065C67.8992 35.4839 69.6571 43.3449 77.9247 43.3449H88.4722C96.7124 43.3449 98.4977 35.4839 98.4977 29.8065C98.4977 24.0199 96.7398 16.6774 88.4722 16.6774ZM87.813 36.9305H78.584C75.5351 36.9305 75.2329 32.8908 75.2329 29.9156C75.2329 26.8586 75.59 23.1191 78.584 23.1191H87.813C90.8069 23.1191 91.164 26.8586 91.164 29.9156C91.164 32.8908 90.8618 36.9305 87.813 36.9305Z" fill="#373D42"/>
<path d="M62.9277 27.732V25.2209C62.9277 19.5161 60.0711 16.6774 54.3304 16.6774H41.9976C35.7625 16.6774 32.6862 19.7072 32.6862 25.7941V43.3722H40.2122V24.7568C40.2122 23.6377 40.844 23.0645 42.025 23.0645H53.6712C55.4566 23.0645 56.3905 24.0199 56.3905 25.8759V27.0769C56.3905 29.1241 55.4566 30.134 53.6712 30.134H44.3323L52.6549 43.3722H61.5269C60.8127 42.3077 58.89 39.2506 57.0497 36.33C61.1148 35.2655 62.9277 32.072 62.9277 27.732Z" fill="#373D42"/>
<path d="M24.5833 23.0646L27.3849 16.6229H9.88825C3.35103 16.6229 0.769104 22.4641 0.769104 27.4864V31.8536C0.769104 37.0397 3.35103 43.3449 9.88825 43.3449H27.9618V36.9033H10.7947C8.65222 36.9033 8.24022 34.5013 8.24022 31.8536V27.4864C8.24022 25.0571 8.73463 23.0646 10.7672 23.0646H24.5833Z" fill="#373D42"/>
<path d="M8.5149 11.8735H29.1703L31.972 5.45911H10.7123C4.64201 5.45911 1.97768 10.5087 1.64807 15.2581C3.10384 13.2656 5.35616 11.8735 8.5149 11.8735Z" fill="#009FE3"/>
</svg>
