<svg width="30" height="15" viewBox="0 0 30 15" fill="none" xmlns="http://www.w3.org/2000/svg">
<path d="M20.5768 0.445384C19.996 -0.141944 19.0495 -0.149353 18.4596 0.428876L7.39365 11.3658L2.58317 6.38574C2.00943 5.78775 1.05958 5.76812 0.461656 6.34187C-0.13633 6.91561 -0.155958 7.86546 0.417787 8.46338C0.420387 8.46605 0.422922 8.46871 0.425521 8.47138L6.29087 14.5498C6.57157 14.8361 6.95522 14.9983 7.35621 14.9999H7.37272C7.76611 14.9987 8.14332 14.8429 8.42305 14.5663L20.5633 2.56255C21.1498 1.98087 21.1558 1.03453 20.5768 0.445384Z" fill="#6F787B"/>
<path d="M15.2935 14.5499C15.5735 14.8355 15.9559 14.9975 16.3558 15H16.3723C16.7657 14.9988 17.1429 14.8431 17.4226 14.5664L29.5628 2.56265C30.1131 1.94302 30.0569 0.994667 29.4373 0.444385C28.8756 -0.0544901 28.0316 -0.0610542 27.4622 0.428982L16.4008 11.3659L16.0062 10.9562C15.4325 10.3582 14.4826 10.3386 13.8847 10.9123C13.2867 11.486 13.267 12.4358 13.8407 13.0338C13.8433 13.0365 13.8459 13.0392 13.8485 13.0419L15.2935 14.5499Z" fill="#6F787B"/>
</svg>
