<svg width="16" height="10" viewBox="0 0 16 10" fill="none" xmlns="http://www.w3.org/2000/svg">
<path d="M10.9956 1.23019C10.6853 0.916337 10.1795 0.912377 9.8643 1.22137L3.95096 7.06574L1.38037 4.40454C1.07378 4.085 0.566209 4.07451 0.246696 4.3811C-0.072851 4.68769 -0.0833393 5.19527 0.223254 5.51478C0.224643 5.5162 0.225997 5.51763 0.227386 5.51905L3.36166 8.76717C3.51166 8.92019 3.71667 9.00684 3.93095 9.00771H3.93977C4.14999 9.00705 4.35156 8.92384 4.50104 8.77599L10.9884 2.36154C11.3019 2.05071 11.3051 1.54501 10.9956 1.23019V1.23019Z" fill="#05CD99"/>
<path d="M8.17239 8.76723C8.32201 8.91986 8.52635 9.00644 8.74008 9.00776H8.7489C8.95912 9.0071 9.16069 8.92389 9.31016 8.77605L15.7975 2.36159C16.0916 2.03048 16.0616 1.52371 15.7305 1.22965C15.4303 0.963066 14.9793 0.959559 14.675 1.22142L8.76411 7.06579L8.55323 6.84689C8.24668 6.52734 7.73911 6.51682 7.41956 6.82341C7.10002 7.12997 7.0895 7.63754 7.39609 7.95709C7.39748 7.95855 7.39887 7.95997 7.40025 7.96139L8.17239 8.76723Z" fill="#05CD99"/>
</svg>
