<svg width="20" height="20" viewBox="0 0 20 20" fill="none" xmlns="http://www.w3.org/2000/svg">
<path d="M2.95767 13.5117C3.09935 13.6534 3.2848 13.7241 3.47026 13.7241C3.65576 13.7241 3.84151 13.653 3.98284 13.5117L13.7497 3.74481C14.0328 3.46169 14.0328 3.00275 13.7497 2.71964C13.4666 2.43656 13.0074 2.43648 12.7245 2.71964C12.7245 2.71965 12.7245 2.71967 12.7245 2.71968L2.95767 12.4865C2.67456 12.7696 2.67456 13.2286 2.95767 13.5117Z" fill="#009FE3" stroke="#009FE3" stroke-width="0.2"/>
<path d="M2.35282 18.2087L2.35301 18.2087C2.40371 18.2195 2.45475 18.225 2.50538 18.225C2.83991 18.225 3.14086 17.9924 3.21378 17.6519C3.21379 17.6519 3.21379 17.6518 3.21379 17.6518L4.1794 13.151C4.26352 12.7594 4.01406 12.3741 3.62264 12.29L3.62255 12.29C3.23285 12.2066 2.84581 12.4551 2.76168 12.8468L2.76167 12.8468L1.79605 17.3477C1.79605 17.3477 1.79605 17.3477 1.79605 17.3477C1.71195 17.7393 1.9614 18.1246 2.35282 18.2087Z" fill="#009FE3" stroke="#009FE3" stroke-width="0.2"/>
<path d="M6.49307 17.0469C6.63475 17.1886 6.8202 17.2593 7.00566 17.2593C7.19107 17.2593 7.37684 17.1886 7.51856 17.0469L17.2851 7.28033C17.5682 6.99721 17.5682 6.53827 17.2851 6.25516C17.002 5.97207 16.5427 5.972 16.2599 6.2552L6.49307 16.0217C6.20996 16.3048 6.20996 16.7638 6.49307 17.0469Z" fill="#009FE3" stroke="#009FE3" stroke-width="0.2"/>
<path d="M1.7957 17.6519L1.79572 17.652C1.86895 17.9925 2.16949 18.2251 2.50411 18.2251C2.55419 18.2251 2.6054 18.22 2.65689 18.2087C2.65698 18.2087 2.65706 18.2087 2.65715 18.2087L7.15759 17.2432L7.15761 17.2431C7.54912 17.159 7.79812 16.7737 7.7144 16.3823L7.7144 16.3823C7.63059 15.9908 7.24513 15.7424 6.8537 15.8254L6.85345 15.8254L2.35251 16.791L2.35248 16.791C1.96097 16.8751 1.71198 17.2605 1.7957 17.6519Z" fill="#009FE3" stroke="#009FE3" stroke-width="0.2"/>
<path d="M15.5174 9.04786C15.8004 8.76474 15.8004 8.30586 15.5173 8.02278L11.982 4.4875L11.982 4.48746L11.9113 4.55817C11.6675 4.31411 11.2713 4.31411 11.0275 4.55817C10.7835 4.80223 10.7835 5.19786 11.0275 5.44192L15.5174 9.04786Z" fill="#009FE3" stroke="#009FE3" stroke-width="0.2"/>
<path d="M17.2848 7.28037C17.888 6.67747 18.2197 5.86717 18.2197 4.99996C18.2197 4.13276 17.888 3.32247 17.2848 2.71958C16.6819 2.11635 15.8713 1.78464 15.0044 1.78464C14.1372 1.78464 13.3269 2.11635 12.724 2.71958L12.724 2.7196C12.441 3.003 12.4409 3.4619 12.724 3.74504L12.7241 3.74509C13.0078 4.02843 13.4667 4.02819 13.7495 3.74501C14.078 3.4163 14.5232 3.23464 15.0044 3.23464C15.4857 3.23464 15.9309 3.4163 16.2597 3.74504C16.5881 4.07346 16.7697 4.51869 16.7697 4.99996C16.7697 5.48123 16.5881 5.92645 16.2597 6.25487L16.2596 6.25492C15.9766 6.53831 15.9765 6.99721 16.2597 7.28035C16.4014 7.42207 16.5871 7.49277 16.7726 7.49277C16.958 7.49277 17.1437 7.42174 17.2848 7.28037ZM17.2848 7.28037L17.2141 7.20964M17.2848 7.28037C17.2848 7.28034 17.2849 7.2803 17.2849 7.28026L17.2141 7.20964M17.2141 7.20964C17.7982 6.62589 18.1197 5.84121 18.1197 4.99996C18.1197 4.15871 17.7982 3.37402 17.2141 2.79027L16.3304 6.32558C16.0863 6.56996 16.0863 6.96558 16.3304 7.20964C16.4526 7.33183 16.6126 7.39277 16.7726 7.39277C16.9326 7.39277 17.0926 7.33152 17.2141 7.20964Z" fill="#009FE3" stroke="#009FE3" stroke-width="0.2"/>
</svg>
