<svg width="16" height="16" viewBox="0 0 16 16" fill="none" xmlns="http://www.w3.org/2000/svg">
<path d="M8 4.6875C7.7928 4.6875 7.59409 4.60519 7.44757 4.45868C7.30106 4.31216 7.21875 4.11345 7.21875 3.90625V0.78125C7.21875 0.57405 7.30106 0.375336 7.44757 0.228823C7.59409 0.08231 7.7928 0 8 0C8.2072 0 8.40591 0.08231 8.55243 0.228823C8.69894 0.375336 8.78125 0.57405 8.78125 0.78125V3.90625C8.78125 4.11345 8.69894 4.31216 8.55243 4.45868C8.40591 4.60519 8.2072 4.6875 8 4.6875Z" fill="#F07504"/>
<path d="M8 16C7.7928 16 7.59409 15.9177 7.44757 15.7712C7.30106 15.6247 7.21875 15.426 7.21875 15.2188V12.0938C7.21875 11.8865 7.30106 11.6878 7.44757 11.5413C7.59409 11.3948 7.7928 11.3125 8 11.3125C8.2072 11.3125 8.40591 11.3948 8.55243 11.5413C8.69894 11.6878 8.78125 11.8865 8.78125 12.0938V15.2188C8.78125 15.426 8.69894 15.6247 8.55243 15.7712C8.40591 15.9177 8.2072 16 8 16Z" fill="#F07504"/>
<path d="M3.90625 8.78125H0.78125C0.57405 8.78125 0.375336 8.69894 0.228823 8.55243C0.08231 8.40591 0 8.2072 0 8C0 7.7928 0.08231 7.59409 0.228823 7.44757C0.375336 7.30106 0.57405 7.21875 0.78125 7.21875H3.90625C4.11345 7.21875 4.31216 7.30106 4.45868 7.44757C4.60519 7.59409 4.6875 7.7928 4.6875 8C4.6875 8.2072 4.60519 8.40591 4.45868 8.55243C4.31216 8.69894 4.11345 8.78125 3.90625 8.78125Z" fill="#F07504"/>
<path d="M15.2188 8.78125H12.0938C11.8865 8.78125 11.6878 8.69894 11.5413 8.55243C11.3948 8.40591 11.3125 8.2072 11.3125 8C11.3125 7.7928 11.3948 7.59409 11.5413 7.44757C11.6878 7.30106 11.8865 7.21875 12.0938 7.21875H15.2188C15.426 7.21875 15.6247 7.30106 15.7712 7.44757C15.9177 7.59409 16 7.7928 16 8C16 8.2072 15.9177 8.40591 15.7712 8.55243C15.6247 8.69894 15.426 8.78125 15.2188 8.78125Z" fill="#F07504"/>
<path d="M10.8947 5.88666C10.7403 5.88638 10.5894 5.84035 10.4612 5.75439C10.3329 5.66843 10.233 5.54639 10.174 5.40368C10.1151 5.26097 10.0998 5.10399 10.13 4.95257C10.1602 4.80115 10.2346 4.66207 10.3438 4.55291L12.5519 2.34384C12.6236 2.26778 12.7098 2.20689 12.8055 2.16476C12.9012 2.12263 13.0043 2.10014 13.1088 2.0986C13.2133 2.09706 13.3171 2.11651 13.414 2.1558C13.5108 2.19509 13.5988 2.25342 13.6728 2.32733C13.7467 2.40125 13.805 2.48925 13.8443 2.58611C13.8836 2.68298 13.903 2.78675 13.9015 2.89127C13.9 2.99579 13.8775 3.09894 13.8353 3.1946C13.7932 3.29027 13.7323 3.37651 13.6562 3.44822L11.4466 5.65791C11.3742 5.73047 11.2881 5.78803 11.1934 5.82728C11.0987 5.86654 10.9972 5.88671 10.8947 5.88666Z" fill="#F07504"/>
<path d="M2.89564 13.8856C2.74115 13.8855 2.59017 13.8396 2.46176 13.7537C2.33335 13.6678 2.23329 13.5458 2.17423 13.403C2.11516 13.2603 2.09974 13.1032 2.12992 12.9517C2.1601 12.8002 2.23451 12.6611 2.34376 12.5518L4.55283 10.3437C4.62538 10.2712 4.71152 10.2136 4.80632 10.1743C4.90111 10.1351 5.00272 10.1149 5.10533 10.1149C5.20794 10.1149 5.30954 10.1351 5.40434 10.1743C5.49914 10.2136 5.58527 10.2712 5.65783 10.3437C5.73038 10.4163 5.78794 10.5024 5.8272 10.5972C5.86647 10.692 5.88668 10.7936 5.88668 10.8962C5.88668 10.9988 5.86647 11.1004 5.8272 11.1952C5.78794 11.29 5.73038 11.3762 5.65783 11.4487L3.44814 13.6562C3.37569 13.729 3.28959 13.7867 3.19477 13.826C3.09996 13.8654 2.9983 13.8856 2.89564 13.8856Z" fill="#F07504"/>
<path d="M5.10542 5.88666C5.00279 5.88679 4.90116 5.86666 4.80634 5.8274C4.71153 5.78815 4.6254 5.73054 4.55291 5.65791L2.34384 3.44822C2.26778 3.37651 2.20689 3.29027 2.16476 3.1946C2.12263 3.09894 2.10014 2.99579 2.0986 2.89127C2.09706 2.78675 2.11651 2.68298 2.1558 2.58611C2.19509 2.48925 2.25342 2.40125 2.32733 2.32733C2.40125 2.25342 2.48925 2.19509 2.58611 2.1558C2.68298 2.11651 2.78675 2.09706 2.89127 2.0986C2.99579 2.10014 3.09894 2.12263 3.19461 2.16476C3.29028 2.20689 3.37652 2.26778 3.44822 2.34384L5.65792 4.55353C5.76721 4.66279 5.84164 4.80201 5.87179 4.95358C5.90195 5.10514 5.88648 5.26225 5.82734 5.40502C5.76819 5.5478 5.66803 5.66982 5.53953 5.75566C5.41103 5.84151 5.25995 5.88731 5.10542 5.88728V5.88666Z" fill="#F07504"/>
<path d="M13.1044 13.8857C13.0017 13.8857 12.9001 13.8654 12.8053 13.8261C12.7104 13.7867 12.6243 13.729 12.5519 13.6563L10.3438 11.4472C10.2095 11.2986 10.1374 11.104 10.1425 10.9037C10.1475 10.7034 10.2294 10.5127 10.371 10.371C10.5127 10.2294 10.7034 10.1475 10.9037 10.1425C11.104 10.1374 11.2985 10.2095 11.4472 10.3438L13.6563 12.5519C13.7655 12.6612 13.84 12.8004 13.8701 12.9519C13.9003 13.1035 13.8848 13.2606 13.8257 13.4034C13.7665 13.5462 13.6664 13.6682 13.5379 13.754C13.4094 13.8399 13.2583 13.8857 13.1038 13.8857H13.1044Z" fill="#F07504"/>
</svg>
