<svg width="56" height="56" viewBox="0 0 56 56" fill="none" xmlns="http://www.w3.org/2000/svg">
<circle cx="28" cy="28" r="28" fill="url(#paint0_linear_5_601)"/>
<g clip-path="url(#clip0_5_601)">
<path d="M18.6667 21.875C18.6667 18.8195 21.1529 16.3333 24.2084 16.3333H34.8636C34.4797 14.9905 33.2559 14 31.7917 14H18.3751C16.6052 14 15.1667 15.4385 15.1667 17.2083V35.2917C15.1667 37.0615 16.6052 38.5 18.3751 38.5H18.6667V21.875Z" fill="white"/>
<path d="M37.625 18.6666H24.2083C22.4385 18.6666 21 20.1051 21 21.875V38.7916C21 40.5615 22.4385 42 24.2083 42H37.625C39.3948 42 40.8333 40.5615 40.8333 38.7916V21.875C40.8333 20.1051 39.3948 18.6666 37.625 18.6666ZM35.2917 38.5H26.5417C26.0587 38.5 25.6667 38.108 25.6667 37.625C25.6667 37.142 26.0587 36.75 26.5417 36.75H35.2917C35.7747 36.75 36.1667 37.142 36.1667 37.625C36.1667 38.108 35.7747 38.5 35.2917 38.5ZM35.2917 33.8333H26.5417C26.0587 33.8333 25.6667 33.4413 25.6667 32.9583C25.6667 32.4753 26.0587 32.0833 26.5417 32.0833H35.2917C35.7747 32.0833 36.1667 32.4753 36.1667 32.9583C36.1667 33.4413 35.7747 33.8333 35.2917 33.8333ZM35.2917 29.75H26.5417C26.0587 29.75 25.6667 29.358 25.6667 28.875C25.6667 28.392 26.0587 28 26.5417 28H35.2917C35.7747 28 36.1667 28.392 36.1667 28.875C36.1667 29.358 35.7747 29.75 35.2917 29.75ZM35.2917 25.0833H26.5417C26.0587 25.0833 25.6667 24.6913 25.6667 24.2083C25.6667 23.7253 26.0587 23.3333 26.5417 23.3333H35.2917C35.7747 23.3333 36.1667 23.7253 36.1667 24.2083C36.1667 24.6913 35.7747 25.0833 35.2917 25.0833Z" fill="white"/>
</g>
<defs>
<linearGradient id="paint0_linear_5_601" x1="0.79096" y1="1.17775e-06" x2="47.5452" y2="38.3166" gradientUnits="userSpaceOnUse">
<stop stop-color="#009FE3"/>
<stop offset="1" stop-color="#0291CE"/>
</linearGradient>
<clipPath id="clip0_5_601">
<rect width="28" height="28" fill="white" transform="translate(14 14)"/>
</clipPath>
</defs>
</svg>
