<svg width="56" height="56" viewBox="0 0 56 56" fill="none" xmlns="http://www.w3.org/2000/svg">
<circle cx="28" cy="28" r="28" fill="url(#paint0_linear_5_626)"/>
<path fill-rule="evenodd" clip-rule="evenodd" d="M33.2373 29.3184C34.8356 30.4034 35.9556 31.8734 35.9556 33.8334V37.3334H39.4556C40.0973 37.3334 40.6223 36.8084 40.6223 36.1667V33.8334C40.6223 31.29 36.4573 29.785 33.2373 29.3184Z" fill="white"/>
<path d="M24.2891 27.9998C26.8664 27.9998 28.9558 25.9105 28.9558 23.3332C28.9558 20.7558 26.8664 18.6665 24.2891 18.6665C21.7118 18.6665 19.6224 20.7558 19.6224 23.3332C19.6224 25.9105 21.7118 27.9998 24.2891 27.9998Z" fill="white"/>
<path fill-rule="evenodd" clip-rule="evenodd" d="M31.289 27.9998C33.8673 27.9998 35.9556 25.9115 35.9556 23.3332C35.9556 20.7548 33.8673 18.6665 31.289 18.6665C30.7406 18.6665 30.2273 18.7832 29.7373 18.9465C30.7056 20.1482 31.289 21.6765 31.289 23.3332C31.289 24.9898 30.7056 26.5182 29.7373 27.7198C30.2273 27.8832 30.7406 27.9998 31.289 27.9998Z" fill="white"/>
<path fill-rule="evenodd" clip-rule="evenodd" d="M24.289 29.1665C21.174 29.1665 14.9557 30.7298 14.9557 33.8332V36.1665C14.9557 36.8082 15.4807 37.3332 16.1224 37.3332H32.4557C33.0974 37.3332 33.6224 36.8082 33.6224 36.1665V33.8332C33.6224 30.7298 27.404 29.1665 24.289 29.1665Z" fill="white"/>
<defs>
<linearGradient id="paint0_linear_5_626" x1="0.79096" y1="1.17775e-06" x2="47.5452" y2="38.3166" gradientUnits="userSpaceOnUse">
<stop stop-color="#009FE3"/>
<stop offset="1" stop-color="#0291CE"/>
</linearGradient>
</defs>
</svg>
