<svg width="22" height="22" viewBox="0 0 22 22" fill="none" xmlns="http://www.w3.org/2000/svg">
<path d="M8.47911 9.16661H1.60411C0.719559 9.16661 0 9.88617 0 10.7709V20.3959C0 21.2804 0.719559 22 1.60411 22H8.47911C9.36383 22 10.0834 21.2804 10.0834 20.3959V10.7709C10.0834 9.88617 9.36383 9.16661 8.47911 9.16661Z" fill="#009FE3"/>
<path d="M20.3959 0H13.5209C12.6362 0 11.9166 0.719559 11.9166 1.60411V11.2291C11.9166 12.1138 12.6362 12.8334 13.5209 12.8334H20.3959C21.2804 12.8334 22 12.1138 22 11.2291V1.60411C22 0.719559 21.2804 0 20.3959 0Z" fill="#009FE3"/>
<path d="M8.47911 0H1.60411C0.719559 0 0 0.719559 0 1.60411V5.72911C0 6.61383 0.719559 7.33339 1.60411 7.33339H8.47911C9.36383 7.33339 10.0834 6.61383 10.0834 5.72911V1.60411C10.0834 0.719559 9.36383 0 8.47911 0Z" fill="#009FE3"/>
<path d="M20.3959 14.6666H13.5209C12.6362 14.6666 11.9166 15.3862 11.9166 16.2709V20.3959C11.9166 21.2804 12.6362 22 13.5209 22H20.3959C21.2804 22 22 21.2804 22 20.3959V16.2709C22 15.3862 21.2804 14.6666 20.3959 14.6666Z" fill="#009FE3"/>
</svg>
