<svg width="22" height="22" viewBox="0 0 22 22" fill="none" xmlns="http://www.w3.org/2000/svg">
<g clip-path="url(#clip0_5_1465)">
<path d="M3.66681 6.1875C3.66681 3.78675 5.62022 1.83333 8.02097 1.83333H16.3929C16.0913 0.77825 15.1297 0 13.9793 0H3.43764C2.04706 0 0.916809 1.13025 0.916809 2.52083V16.7292C0.916809 18.1197 2.04706 19.25 3.43764 19.25H3.66681V6.1875Z" fill="#009FE3"/>
<path d="M18.5625 3.66675H8.02083C6.63025 3.66675 5.5 4.797 5.5 6.18758V19.4792C5.5 20.8698 6.63025 22.0001 8.02083 22.0001H18.5625C19.9531 22.0001 21.0833 20.8698 21.0833 19.4792V6.18758C21.0833 4.797 19.9531 3.66675 18.5625 3.66675ZM16.7292 19.2501H9.85417C9.47467 19.2501 9.16667 18.9421 9.16667 18.5626C9.16667 18.1831 9.47467 17.8751 9.85417 17.8751H16.7292C17.1087 17.8751 17.4167 18.1831 17.4167 18.5626C17.4167 18.9421 17.1087 19.2501 16.7292 19.2501ZM16.7292 15.5834H9.85417C9.47467 15.5834 9.16667 15.2754 9.16667 14.8959C9.16667 14.5164 9.47467 14.2084 9.85417 14.2084H16.7292C17.1087 14.2084 17.4167 14.5164 17.4167 14.8959C17.4167 15.2754 17.1087 15.5834 16.7292 15.5834ZM16.7292 12.3751H9.85417C9.47467 12.3751 9.16667 12.0671 9.16667 11.6876C9.16667 11.3081 9.47467 11.0001 9.85417 11.0001H16.7292C17.1087 11.0001 17.4167 11.3081 17.4167 11.6876C17.4167 12.0671 17.1087 12.3751 16.7292 12.3751ZM16.7292 8.70841H9.85417C9.47467 8.70841 9.16667 8.40041 9.16667 8.02091C9.16667 7.64141 9.47467 7.33341 9.85417 7.33341H16.7292C17.1087 7.33341 17.4167 7.64141 17.4167 8.02091C17.4167 8.40041 17.1087 8.70841 16.7292 8.70841Z" fill="#009FE3"/>
</g>
<defs>
<clipPath id="clip0_5_1465">
<rect width="22" height="22" fill="white"/>
</clipPath>
</defs>
</svg>
