<svg width="17" height="19" viewBox="0 0 17 19" fill="none" xmlns="http://www.w3.org/2000/svg">
<path d="M13.5625 0.666748H3.02083C1.63025 0.666748 0.5 1.797 0.5 3.18758V16.4792C0.5 17.8698 1.63025 19.0001 3.02083 19.0001H13.5625C14.9531 19.0001 16.0833 17.8698 16.0833 16.4792V3.18758C16.0833 1.797 14.9531 0.666748 13.5625 0.666748ZM11.7292 16.2501H4.85417C4.47467 16.2501 4.16667 15.9421 4.16667 15.5626C4.16667 15.1831 4.47467 14.8751 4.85417 14.8751H11.7292C12.1087 14.8751 12.4167 15.1831 12.4167 15.5626C12.4167 15.9421 12.1087 16.2501 11.7292 16.2501ZM11.7292 12.5834H4.85417C4.47467 12.5834 4.16667 12.2754 4.16667 11.8959C4.16667 11.5164 4.47467 11.2084 4.85417 11.2084H11.7292C12.1087 11.2084 12.4167 11.5164 12.4167 11.8959C12.4167 12.2754 12.1087 12.5834 11.7292 12.5834ZM11.7292 9.37508H4.85417C4.47467 9.37508 4.16667 9.06708 4.16667 8.68758C4.16667 8.30808 4.47467 8.00008 4.85417 8.00008H11.7292C12.1087 8.00008 12.4167 8.30808 12.4167 8.68758C12.4167 9.06708 12.1087 9.37508 11.7292 9.37508ZM11.7292 5.70841H4.85417C4.47467 5.70841 4.16667 5.40041 4.16667 5.02091C4.16667 4.64141 4.47467 4.33341 4.85417 4.33341H11.7292C12.1087 4.33341 12.4167 4.64141 12.4167 5.02091C12.4167 5.40041 12.1087 5.70841 11.7292 5.70841Z" fill="#009FE3"/>
</svg>
