<svg width="22" height="22" viewBox="0 0 22 22" fill="none" xmlns="http://www.w3.org/2000/svg">
<path d="M21.5116 12.9141L18.9881 13.5347C18.8364 14.0131 18.6413 14.4769 18.4058 14.9207C18.7847 15.5514 19.581 16.8788 19.581 16.8788C19.7333 17.1325 19.693 17.4573 19.4841 17.6662L17.6612 19.489C17.4523 19.6986 17.1281 19.7389 16.8738 19.586L14.9125 18.4108C14.4713 18.6444 14.0099 18.8376 13.5347 18.988L12.9141 21.5115C12.8423 21.7986 12.5849 22 12.2891 22H9.71094C9.4151 22 9.15703 21.7986 9.08591 21.5116C9.08591 21.5116 8.65601 19.7503 8.46592 18.9887C7.95923 18.8282 7.46956 18.6198 7.00313 18.3655L4.96946 19.586C4.71518 19.7371 4.39166 19.698 4.18206 19.489L2.35924 17.6662C2.15029 17.4573 2.10998 17.1325 2.2623 16.8788L3.51991 14.7784C3.31723 14.3787 3.14729 13.9627 3.01198 13.5366L0.488469 12.9141C0.201438 12.8423 0 12.5849 0 12.2891V9.71094C0 9.4151 0.201437 9.15703 0.488426 9.08591L3.01258 8.46532C3.16555 7.98003 3.36441 7.50857 3.60551 7.05603L2.48011 5.18036C2.32779 4.92671 2.36809 4.60191 2.57705 4.39295L4.39987 2.57013C4.60823 2.36178 4.93298 2.32216 5.18727 2.4732C5.18727 2.4732 6.44927 3.22975 7.06737 3.59988C7.51489 3.36132 7.98316 3.1643 8.46596 3.01138L9.08596 0.48847C9.15703 0.201395 9.4151 0 9.71094 0H12.2891C12.5849 0 12.8423 0.201437 12.9141 0.488426L13.5341 3.01134C14.0307 3.16869 14.509 3.37201 14.9641 3.61874C15.5992 3.23795 16.8738 2.4732 16.8738 2.4732C17.1274 2.32152 17.4522 2.36053 17.6612 2.57013L19.484 4.39295C19.693 4.60191 19.7333 4.92671 19.5809 5.18036L18.4222 7.11081C18.6506 7.5445 18.8401 7.99829 18.988 8.46532L21.5115 9.08591C21.7986 9.15767 22 9.4151 22 9.71094V12.2891C22 12.5849 21.7986 12.8423 21.5116 12.9141ZM11 6.48828C8.5125 6.48828 6.48828 8.5125 6.48828 11C6.48828 13.4875 8.5125 15.5117 11 15.5117C13.4875 15.5117 15.5117 13.4875 15.5117 11C15.5117 8.5125 13.4875 6.48828 11 6.48828Z" fill="#009FE3"/>
</svg>
