<svg width="708" height="900" viewBox="0 0 708 900" fill="none" xmlns="http://www.w3.org/2000/svg">
<mask id="mask0_2_22" style="mask-type:alpha" maskUnits="userSpaceOnUse" x="0" y="0" width="708" height="900">
<rect width="708" height="900" fill="white"/>
</mask>
<g mask="url(#mask0_2_22)">
<rect width="708" height="900" fill="url(#paint0_linear_2_22)"/>
<g opacity="0.1">
<path d="M-227.141 282.392C-209.683 264.931 -181.22 264.931 -163.762 282.392L312.531 758.766C329.989 776.226 329.989 804.695 312.531 822.156C295.073 839.616 266.609 839.616 249.152 822.156L-227.141 345.782C-244.599 328.321 -244.599 299.853 -227.141 282.392Z" fill="white"/>
<path d="M15.7497 737.13C24.8581 728.02 39.6593 728.02 49.1472 737.13L298.489 986.514C307.598 995.624 307.598 1010.43 298.489 1019.92C289.381 1029.03 274.58 1029.03 265.092 1019.92L15.7497 770.533C6.64136 761.423 6.64136 746.24 15.7497 737.13Z" fill="white"/>
<path d="M-117.841 39.0808C-108.732 29.9709 -93.9311 29.9709 -84.8227 39.0808L162.242 286.188C171.351 295.298 171.351 310.101 162.242 319.211C153.134 328.321 138.333 328.321 129.224 319.211L-117.841 72.1043C-126.949 62.9944 -126.949 48.1907 -117.841 39.0808Z" fill="white"/>
<path d="M197.538 18.5836C206.266 9.85324 220.688 9.85324 229.796 18.5836L470.41 259.238C479.139 267.968 479.139 282.392 470.41 291.502C461.681 300.232 447.259 300.232 438.151 291.502L197.538 50.848C188.809 41.738 188.809 27.314 197.538 18.5836Z" fill="white"/>
<path d="M548.21 279.355C564.15 263.413 589.957 263.413 606.276 279.355L1040.82 713.975C1056.76 729.918 1056.76 755.729 1040.82 772.051C1024.88 787.994 999.075 787.994 982.756 772.051L548.21 337.431C532.271 321.489 532.271 295.298 548.21 279.355Z" fill="white"/>
<path d="M-647.645 472.183C-622.217 446.751 -580.47 446.751 -555.043 472.183L139.472 1166.82C164.899 1192.25 164.899 1234 139.472 1259.43C114.044 1284.86 72.2973 1284.86 46.8697 1259.43L-647.645 564.8C-673.452 538.989 -673.452 497.614 -647.645 472.183Z" fill="white"/>
<path d="M681.421 626.292C696.981 610.729 721.649 610.729 737.21 626.292L1155.44 1044.59C1171 1060.15 1171 1084.83 1155.44 1100.39C1139.88 1115.95 1115.21 1115.95 1099.65 1100.39L681.421 682.091C665.86 666.907 665.86 641.855 681.421 626.292Z" fill="white"/>
<path d="M452.193 -34.5579C465.476 -47.8432 486.729 -47.8432 500.012 -34.5579L859.793 325.285C873.076 338.57 873.076 359.826 859.793 373.112C846.51 386.397 825.257 386.397 811.974 373.112L452.193 13.2693C438.91 -0.0160179 438.91 -21.2725 452.193 -34.5579Z" fill="white"/>
<path d="M432.458 754.591C439.669 747.379 451.434 747.379 458.644 754.591L653.716 949.695C660.927 956.907 660.927 968.674 653.716 975.886C646.505 983.098 634.74 983.098 627.529 975.886L432.458 780.782C425.247 773.57 425.247 761.803 432.458 754.591Z" fill="white"/>
<path d="M554.282 -247.503C581.608 -274.832 626.391 -274.832 653.716 -247.503L1399.09 497.994C1426.41 525.324 1426.41 570.114 1399.09 597.444C1371.76 624.774 1326.98 624.774 1299.65 597.444L554.282 -148.052C526.957 -175.382 526.957 -219.793 554.282 -247.503Z" fill="white"/>
<path d="M-610.073 -174.244C-589.579 -194.741 -556.181 -194.741 -535.308 -174.244L23.7192 385.258C44.2131 405.756 44.2131 439.159 23.7192 460.036C3.2254 480.533 -30.172 480.533 -51.0454 460.036L-610.073 -99.8457C-630.946 -120.343 -630.946 -153.746 -610.073 -174.244Z" fill="white"/>
<path d="M73.0569 189.395C94.3097 168.138 129.225 168.138 150.478 189.395L730.758 769.774C752.011 791.03 752.011 825.951 730.758 847.208C709.505 868.465 674.59 868.465 653.337 847.208L73.0569 266.45C51.804 245.193 51.804 210.651 73.0569 189.395Z" fill="white"/>
</g>
</g>
<defs>
<linearGradient id="paint0_linear_2_22" x1="9.99999" y1="1.89282e-05" x2="708" y2="450" gradientUnits="userSpaceOnUse">
<stop stop-color="#009FE3"/>
<stop offset="1" stop-color="#0291CE"/>
</linearGradient>
</defs>
</svg>
