<svg id="SvgjsSvg1001" width="288" height="288" xmlns="http://www.w3.org/2000/svg" version="1.1" xmlns:xlink="http://www.w3.org/1999/xlink" xmlns:svgjs="http://svgjs.com/svgjs"><defs id="SvgjsDefs1002"></defs><g id="SvgjsG1008" transform="matrix(1,0,0,1,0,0)"><svg xmlns="http://www.w3.org/2000/svg" width="288" height="288" version="1.0" viewBox="0 0 512 512"><g transform="matrix(.1 0 0 -.1 0 512)" fill="#009fe3" class="color000 svgShape"><path d="M2415 3975c-138-30-270-106-360-207-53-61-128-207-150-292-18-73-35-203-35-273 0-43-3-53-20-58-11-4-27-19-35-35-17-34-20-126-4-167 15-39 59-83 84-83 17 0 25-11 39-57 46-152 169-351 274-444 103-92 249-159 344-159 53 0 135 23 203 57 185 94 371 324 440 545 14 43 24 58 41 62 13 4 36 22 51 42 51 68 41 220-16 239-15 5-19 20-25 93-29 348-150 574-367 681-135 67-316 89-464 56zM1055 3419c-117-15-233-73-301-152-78-92-133-250-134-384 0-51-3-64-19-73-30-16-44-71-31-120 12-43 41-80 63-80 7 0 28-38 46-84 63-162 176-298 298-358 141-69 269-34 419 116 84 84 151 188 175 273 8 31 20 48 40 58 59 31 75 153 25 192-19 15-24 31-29 99-8 95-38 206-73 277-61 120-198 218-322 232-32 3-66 7-77 9-11 2-47 0-80-5zM3950 3420c-256-32-420-219-437-499-5-84-9-97-30-115-36-31-40-89-11-146 15-29 31-46 44-48 17-2 28-20 48-75 61-166 176-306 301-368 95-47 174-47 269 0 128 63 257 212 316 364 19 48 36 74 53 83 23 12 37 37 52 92 9 30-12 90-36 102-14 8-19 21-19 49 0 71-30 213-62 288-59 144-197 253-336 268-32 3-66 7-77 9-11 2-45 0-75-4zM1891 2065c-567-118-834-381-876-862l-6-73 1551 0 1551 0-7 68c-30 338-152 544-415 704-134 81-355 152-570 183l-46 7-169-331c-93-182-171-331-174-331-3 0-17 95-32 212l-26 212 42 38 41 37-192 1c-106 0-193-3-193-7 0-5 18-21 40-37 25-18 38-36 36-45-2-9-14-101-27-206-12-104-25-193-28-197-4-4-82 141-174 322-145 283-172 330-190 329-12 0-73-11-136-24z" fill="#009fe3" class="color000 svgShape"></path><path d="M605 2030c-194-44-327-110-431-214-104-104-155-218-170-385l-7-71 499 0 499 0 14 58c18 82 89 226 149 304 49 64 51 68 45 115-5 46-3 51 22 71l28 22-137 0-137 0 27-23 27-24-18-151c-10-83-22-149-27-146-5 3-60 109-123 235l-115 229-33-1c-17 0-68-9-112-19zM4248 1808l-123-243-19 159-19 159 27 24 27 23-137 0-137 0 28-22c25-20 27-25 22-71-6-47-4-51 45-115 60-78 131-222 149-304l14-58 499 0 499 0-7 71c-9 100-23 153-62 236-84 178-270 303-544 364-147 32-122 54-262-223z" fill="#009fe3" class="color000 svgShape"></path></g></svg></g></svg>