<svg width="34" height="27" viewBox="0 0 34 27" fill="none" xmlns="http://www.w3.org/2000/svg">
<g filter="url(#filter0_dd_5_1451)">
<path fill-rule="evenodd" clip-rule="evenodd" d="M22.2816 14.6519C23.8799 15.7369 24.9999 17.2069 24.9999 19.1669V22.6669H28.4999C29.1416 22.6669 29.6666 22.1419 29.6666 21.5002V19.1669C29.6666 16.6235 25.5016 15.1185 22.2816 14.6519Z" fill="white"/>
<path d="M13.3334 13.3333C15.9107 13.3333 18 11.244 18 8.66667C18 6.08934 15.9107 4 13.3334 4C10.756 4 8.66669 6.08934 8.66669 8.66667C8.66669 11.244 10.756 13.3333 13.3334 13.3333Z" fill="white"/>
<path fill-rule="evenodd" clip-rule="evenodd" d="M20.3333 13.3333C22.9117 13.3333 25 11.245 25 8.66667C25 6.08833 22.9117 4 20.3333 4C19.785 4 19.2717 4.11667 18.7817 4.28C19.75 5.48167 20.3333 7.01 20.3333 8.66667C20.3333 10.3233 19.75 11.8517 18.7817 13.0533C19.2717 13.2167 19.785 13.3333 20.3333 13.3333Z" fill="white"/>
<path fill-rule="evenodd" clip-rule="evenodd" d="M13.3333 14.5C10.2183 14.5 4 16.0633 4 19.1667V21.5C4 22.1417 4.525 22.6667 5.16667 22.6667H21.5C22.1417 22.6667 22.6667 22.1417 22.6667 21.5V19.1667C22.6667 16.0633 16.4483 14.5 13.3333 14.5Z" fill="white"/>
</g>
<defs>
<filter id="filter0_dd_5_1451" x="0" y="0" width="33.6666" height="26.6669" filterUnits="userSpaceOnUse" color-interpolation-filters="sRGB">
<feFlood flood-opacity="0" result="BackgroundImageFix"/>
<feColorMatrix in="SourceAlpha" type="matrix" values="0 0 0 0 0 0 0 0 0 0 0 0 0 0 0 0 0 0 127 0" result="hardAlpha"/>
<feOffset/>
<feGaussianBlur stdDeviation="2"/>
<feColorMatrix type="matrix" values="0 0 0 0 1 0 0 0 0 1 0 0 0 0 1 0 0 0 0.25 0"/>
<feBlend mode="normal" in2="BackgroundImageFix" result="effect1_dropShadow_5_1451"/>
<feColorMatrix in="SourceAlpha" type="matrix" values="0 0 0 0 0 0 0 0 0 0 0 0 0 0 0 0 0 0 127 0" result="hardAlpha"/>
<feOffset/>
<feGaussianBlur stdDeviation="0.5"/>
<feColorMatrix type="matrix" values="0 0 0 0 1 0 0 0 0 1 0 0 0 0 1 0 0 0 0.25 0"/>
<feBlend mode="normal" in2="effect1_dropShadow_5_1451" result="effect2_dropShadow_5_1451"/>
<feBlend mode="normal" in="SourceGraphic" in2="effect2_dropShadow_5_1451" result="shape"/>
</filter>
</defs>
</svg>
